<?xml version="1.0" encoding="UTF-8" standalone="no"?>
<svg
   version="1.0"
   width="32"
   height="32"
   viewBox="0 0 1120 928"
   preserveAspectRatio="xMidYMid"
   xmlns="http://www.w3.org/2000/svg">
  <rect width="1120" height="928" rx="180" fill="#6366F1"/>
  <g
     transform="matrix(1.0126931,0,0,1.0126931,-134.1722,-40.141754)"
     style="fill:#ffffff;stroke:#ffffff;stroke-opacity:1">
    <path
       d="m 905.29818,283.32706 c 44.86941,21.56329 41.83481,84.90411 -3.51024,102.95708 -10.14716,2.6723 -35.44508,4.6804 -45.75076,1.50442 -6.18342,-2.00587 -7.45182,0.5611 -20.45286,6.24446 -7.61034,3.34315 -14.11086,5.85048 -14.42797,5.51616 -0.31707,-0.3343 1.2684,-4.68038 3.48809,-9.6951 5.07358,-11.53383 7.31544,-14.54267 1.60764,-24.40495 -20.29429,-34.60153 -1.4048,-74.76715 35.53717,-85.79952 20.02628,-4.68316 32.72758,-1.5044 43.50893,3.67745 z m -132.62975,86.52372 -54.62531,-0.45267 -50.07189,231.26057 -27.34053,124.21174 h -45.1865 -45.18653 l 32.033,-150.45144 41.77547,-204.6759 -112.68593,-0.76068 c -42.64972,-0.16715 -77.14076,0.66152 -77.16948,-0.60522 -0.48533,-21.40891 0.29351,-52.29724 -0.11047,-93.24522 50.88734,0.22738 164.64071,-0.3781 238.52449,-0.28225 l 183.14758,0.2376 c -42.12086,14.82038 -53.51998,64.43607 -34.13714,95.11147 -8.35029,0.0973 -9.74823,-0.0185 -48.96673,-0.348 z m -46.24481,5.2179 c 0.1861,0.16718 49.25551,86.90466 104.43491,177.27419 54.61652,89.44767 53.21433,85.2607 106.95744,172.78567 -13.34019,-0.01 -30.38459,-0.3011 -59.66989,-0.3474 -44.09363,-2.45733 -48.51545,-20.24873 -71.7983,-51.30178 -26.9646,-39.05237 -47.37784,-70.64087 -83.46861,-135.61244 -26.1932,-47.1537 -20.61016,-37.47214 3.54445,-162.79828 z"
       style="fill:#ffffff;stroke:#ffffff;stroke-width:0.162796;stroke-opacity:0" />
  </g>
</svg>
