<?xml version="1.0" encoding="UTF-8" standalone="no"?>
<svg
   version="1.0"
   width="2500"
   height="928"
   viewBox="0 0 2500 928"
   preserveAspectRatio="xMidYMid"
   xmlns="http://www.w3.org/2000/svg">
  <defs id="defs9" />
  <!-- Logo Icon -->
  <g
     transform="matrix(1.0126931,0,0,1.0126931,-134.1722,-40.141754)"
     style="fill:#111827;stroke:#111827;stroke-opacity:1">
    <path
       d="m 905.29818,283.32706 c 44.86941,21.56329 41.83481,84.90411 -3.51024,102.95708 -10.14716,2.6723 -35.44508,4.6804 -45.75076,1.50442 -6.18342,-2.00587 -7.45182,0.5611 -20.45286,6.24446 -7.61034,3.34315 -14.11086,5.85048 -14.42797,5.51616 -0.31707,-0.3343 1.2684,-4.68038 3.48809,-9.6951 5.07358,-11.53383 7.31544,-14.54267 1.60764,-24.40495 -20.29429,-34.60153 -1.4048,-74.76715 35.53717,-85.79952 20.02628,-4.68316 32.72758,-1.5044 43.50893,3.67745 z m -132.62975,86.52372 -54.62531,-0.45267 -50.07189,231.26057 -27.34053,124.21174 h -45.1865 -45.18653 l 32.033,-150.45144 41.77547,-204.6759 -112.68593,-0.76068 c -42.64972,-0.16715 -77.14076,0.66152 -77.16948,-0.60522 -0.48533,-21.40891 0.29351,-52.29724 -0.11047,-93.24522 50.88734,0.22738 164.64071,-0.3781 238.52449,-0.28225 l 183.14758,0.2376 c -42.12086,14.82038 -53.51998,64.43607 -34.13714,95.11147 -8.35029,0.0973 -9.74823,-0.0185 -48.96673,-0.348 z m -46.24481,5.2179 c 0.1861,0.16718 49.25551,86.90466 104.43491,177.27419 54.61652,89.44767 53.21433,85.2607 106.95744,172.78567 -13.34019,-0.01 -30.38459,-0.3011 -59.66989,-0.3474 -44.09363,-2.45733 -48.51545,-20.24873 -71.7983,-51.30178 -26.9646,-39.05237 -47.37784,-70.64087 -83.46861,-135.61244 -26.1932,-47.1537 -20.61016,-37.47214 3.54445,-162.79828 z"
       style="fill:#111827;stroke:#111827;stroke-width:0.162796;stroke-opacity:0" />
    <path
       d="m 854.04808,319.06787 c 3.82763,23.12669 4.72075,24.92293 6.76215,13.58411 1.65864,-9.09349 3.44487,-11.22655 7.40011,-8.98124 1.14828,0.56134 2.80692,3.2557 3.82763,5.83782 1.02069,2.5821 2.0414,4.60288 2.29658,4.37834 0.12754,-0.22453 1.53105,-6.39912 3.06212,-13.80865 3.70004,-19.30967 3.82763,-19.64646 5.86904,-19.64646 1.02071,0 1.78622,0.11223 1.78622,0.22453 0,0.22454 1.40348,9.0935 3.18971,19.871 1.78622,10.66521 3.18969,19.98325 3.18969,20.65685 0,0.67358 0.38276,0.78586 1.02071,0.33679 0.51035,-0.44906 1.78622,-5.50101 2.80693,-11.11429 2.169,-11.78787 4.08281,-13.13505 8.4208,-5.8378 l 2.55176,4.49062 17.86231,0.56133 c 20.80815,1.11645 13.21028,3.79636 -1.40346,3.14344 -16.33126,0.22453 -19.39338,0 -20.66925,-1.45946 -1.27589,-1.68398 -1.53106,-1.68398 -2.16899,0.22454 -0.38277,1.12264 -1.65866,7.85857 -2.80694,14.93131 -3.57245,21.55496 -5.61387,20.09551 -10.07945,-6.73593 -1.78623,-10.7775 -3.44487,-20.20779 -3.70004,-20.76913 -0.38277,-1.01039 -1.78623,4.15383 -4.2104,16.27851 -0.89313,4.04155 -1.65864,5.1642 -3.95522,5.38873 -2.80694,0.33681 -3.70006,-0.78585 -7.14493,-9.20577 -0.38277,-1.12265 -1.02071,-1.9085 -1.40348,-1.68397 -0.25517,0.33679 -1.78622,6.62366 -3.18969,13.92091 -4.46557,21.89177 -6.37939,20.88138 -10.71739,-5.95006 -1.65864,-10.66522 -3.31728,-19.64646 -3.70005,-19.98327 -0.25517,-0.22453 -1.78622,6.73593 -3.44486,15.49265 -1.53107,8.86897 -3.44488,16.50302 -4.08283,17.17661 -1.91381,1.79626 -4.08281,-1.90851 -6.63457,-11.11428 -1.27587,-4.71515 -2.80694,-8.53217 -3.44486,-8.53217 -0.63795,0 -1.1483,0.44905 -1.1483,1.12265 0,0.67359 -7.27252,1.12266 -19.13818,1.12266 -16.20367,0 -19.13819,-0.22453 -19.13819,-1.68399 0,-1.45945 2.80693,-1.68398 17.22436,-1.68398 h 17.22437 l 2.29659,-4.26609 c 3.31727,-6.28686 5.48628,-5.38875 8.03803,3.48023 1.1483,4.26609 2.42417,7.85858 2.67935,8.08311 0.25518,0.33681 2.16899,-7.40951 4.08281,-17.17662 1.91383,-9.65482 3.82765,-18.07474 4.21041,-18.5238 2.04141,-3.03117 3.82763,1.90852 6.3794,17.85022 z"
       style="fill:#ffffff;stroke:#111827;stroke-width:0.119682;stroke-opacity:0" />
  </g>
  <!-- TalkifAI Text -->
  <text
     x="960"
     y="660"
     font-family="Inter, -apple-system, BlinkMacSystemFont, 'Segoe UI', sans-serif"
     font-weight="700"
     font-size="430"
     fill="#111827"
     letter-spacing="-8">TalkifAI</text>
</svg>
